<svg width="1920" height="1080" viewBox="0 0 1920 1080" fill="none" xmlns="http://www.w3.org/2000/svg">
<g id="bg-hero" clip-path="url(#clip0)">
<rect width="1920" height="1080" fill="#050607"/>
<path id="lf-lg-line1" d="M151 299V1012.5" stroke="#7B6BFA"/>
<path id="lf-med-line1" d="M127 216L126 538" stroke="#7B6BFA"/>
<path id="lf-med2-line1" d="M206 322L204 755" stroke="#7B6BFA"/>
<path id="lf-lt-line1" d="M233 454V574" stroke="#7B6BFA"/>
<path id="rg-lg-line2" d="M1779 299V1012.5" stroke="#7B6BFA"/>
<path id="rg-med-line2" d="M1803 216L1804 538" stroke="#7B6BFA"/>
<path id="rg-med2-line2" d="M1724 322L1726 755" stroke="#7B6BFA"/>
<path id="rg-lt-line2" d="M1697 454V574" stroke="#7B6BFA"/>
<g id="lf-blurred-stain" filter="url(#filter0_f)">
<path d="M574.606 906.078C518.04 906.078 423.765 892.932 358.536 803.728C305.652 706.284 213.3 445.658 701.496 521.716C763.667 534.862 932.415 579.522 944.575 584.003C959.863 589.637 1322.7 712.645 1338.5 712.645C1351.13 712.645 1476.6 747.388 1498 813.118L1483.73 852.242L1459.78 882.603C1410.35 942.386 593.767 906.078 574.606 906.078Z" fill="#7B6BFA" fill-opacity="0.2"/>
<path d="M574.606 906.078C518.04 906.078 423.765 892.932 358.536 803.728C305.652 706.284 213.3 445.658 701.496 521.716C763.667 534.862 932.415 579.522 944.575 584.003C959.863 589.637 1322.7 712.645 1338.5 712.645C1351.13 712.645 1476.6 747.388 1498 813.118L1483.73 852.242L1459.78 882.603C1410.35 942.386 593.767 906.078 574.606 906.078Z" stroke="#7B6BFA"/>
</g>
<g id="rg-blurred-stain" filter="url(#filter1_f)">
<path d="M1328.51 74.8797C1381.4 75.036 1469.51 87.7269 1530.26 172.254C1579.43 264.539 1665.05 511.229 1208.79 437.962C1150.7 425.36 993.037 382.666 981.679 378.395C967.4 373.026 628.484 255.712 613.713 255.668C601.896 255.634 484.682 222.436 464.853 160.226L478.304 123.271L500.784 94.6295C547.171 38.2386 1310.59 74.8267 1328.51 74.8797Z" fill="#7B6BFA" fill-opacity="0.2"/>
<path d="M1328.51 74.8797C1381.4 75.036 1469.51 87.7269 1530.26 172.254C1579.43 264.539 1665.05 511.229 1208.79 437.962C1150.7 425.36 993.037 382.666 981.679 378.395C967.4 373.026 628.484 255.712 613.713 255.668C601.896 255.634 484.682 222.436 464.853 160.226L478.304 123.271L500.784 94.6295C547.171 38.2386 1310.59 74.8267 1328.51 74.8797Z" stroke="#7B6BFA"/>
</g>
</g>
<defs>
<filter id="filter0_f" x="-41.5" y="151.5" width="1896.03" height="1122" filterUnits="userSpaceOnUse" color-interpolation-filters="sRGB">
<feFlood flood-opacity="0" result="BackgroundImageFix"/>
<feBlend mode="normal" in="SourceGraphic" in2="BackgroundImageFix" result="shape"/>
<feGaussianBlur stdDeviation="178" result="effect1_foregroundBlur"/>
</filter>
<filter id="filter1_f" x="107.47" y="-294.502" width="1820.31" height="1103" filterUnits="userSpaceOnUse" color-interpolation-filters="sRGB">
<feFlood flood-opacity="0" result="BackgroundImageFix"/>
<feBlend mode="normal" in="SourceGraphic" in2="BackgroundImageFix" result="shape"/>
<feGaussianBlur stdDeviation="178" result="effect1_foregroundBlur"/>
</filter>
<clipPath id="clip0">
<rect width="1920" height="1080" fill="white"/>
</clipPath>
</defs>
</svg>
